<svg width="400" height="400" viewBox="0 0 639 525" fill="none" xmlns="http://www.w3.org/2000/svg">
<path fill-rule="evenodd" clip-rule="evenodd" d="M368.58 388.821C271.919 388.276 169.653 487.522 92.5687 429.2C16.0533 371.308 17.7546 241.146 58.728 154.386C95.2883 76.9711 191.632 44.9903 277.011 38.6503C334.195 34.404 362.537 108.169 416.404 127.826C452.239 140.903 495.322 107.667 526.473 129.685C565.821 157.496 588.829 204.101 592.313 252.159C596.947 316.066 603.055 398.371 548.374 431.771C493.709 465.162 432.634 389.183 368.58 388.821Z" fill="#6B21A8" fill-opacity="0.56"/>
<ellipse cx="319.168" cy="369.691" rx="272.866" ry="12.6915" fill="black" fill-opacity="0.11"/>
<path d="M217.902 280.848V321.128H55.5405L52.442 289.214L143.073 143.429H184.283L139.51 216.709L102.328 280.848H217.902ZM195.128 143.429V369H142.918V143.429H195.128ZM397.925 235.61V276.82C397.925 293.035 396.014 307.133 392.192 319.114C388.474 331.095 383.104 341.01 376.08 348.86C369.16 356.709 360.898 362.545 351.292 366.366C341.687 370.188 331.1 372.098 319.533 372.098C310.237 372.098 301.561 370.911 293.505 368.535C285.449 366.056 278.168 362.338 271.661 357.381C265.257 352.32 259.732 346.019 255.084 338.48C250.436 330.94 246.873 322.058 244.394 311.833C241.915 301.504 240.676 289.833 240.676 276.82V235.61C240.676 219.291 242.535 205.193 246.253 193.315C250.075 181.334 255.497 171.419 262.52 163.57C269.544 155.72 277.858 149.884 287.463 146.063C297.069 142.242 307.655 140.331 319.223 140.331C328.518 140.331 337.142 141.57 345.095 144.049C353.151 146.424 360.433 150.143 366.94 155.204C373.447 160.161 378.972 166.41 383.517 173.949C388.164 181.489 391.728 190.423 394.206 200.752C396.685 210.977 397.925 222.596 397.925 235.61ZM345.715 283.172V228.948C345.715 221.718 345.302 215.418 344.476 210.047C343.753 204.676 342.616 200.132 341.067 196.414C339.621 192.695 337.814 189.7 335.645 187.428C333.476 185.052 330.997 183.348 328.208 182.315C325.523 181.179 322.528 180.611 319.223 180.611C315.091 180.611 311.373 181.489 308.068 183.245C304.866 184.898 302.129 187.583 299.857 191.301C297.585 195.019 295.829 199.977 294.59 206.174C293.454 212.371 292.886 219.962 292.886 228.948V283.172C292.886 290.505 293.247 296.908 293.97 302.382C294.796 307.753 295.932 312.349 297.378 316.171C298.928 319.889 300.787 322.936 302.956 325.311C305.125 327.583 307.603 329.236 310.392 330.269C313.181 331.302 316.228 331.818 319.533 331.818C323.561 331.818 327.176 330.992 330.377 329.339C333.579 327.687 336.316 325.001 338.588 321.283C340.964 317.462 342.72 312.452 343.856 306.255C345.095 299.955 345.715 292.261 345.715 283.172ZM586.004 280.848V321.128H423.642L420.544 289.214L511.175 143.429H552.385L507.612 216.709L470.43 280.848H586.004ZM563.23 143.429V369H511.02V143.429H563.23Z" fill="#CD83FF"/>
<circle cx="431.301" cy="74" r="33" fill="#6B21A8"/>
<circle cx="536.801" cy="92.5" r="14.5" fill="#6B21A8"/>
<circle cx="592.301" cy="169" r="10" fill="#6B21A8"/>
</svg>
